# xmcd
#
# Track frame offsets: 
#        151
#        12972
#        26937
#        41434
#        52691
#        65150
#        78035
#        92392
#        105843
#        119782
#        133161
#        144250
#        157549
#        170980
#        184457
#
# Disc length: 2639 seconds
#
# Revision: 0
# Processed by: cddbd v1.5.2PL0 Copyright (c) Steve Scherf et al.
# Submitted via: ExactAudioCopy v0.99pb4
#
DISCID=bf0a4d0f
DTITLE=Various Artist - Nice and Nasty - Selections from Dr Ragtime's Private
DTITLE=Stash
DYEAR=2008
DGENRE=National Folk
TTITLE0=Sam McGee - Buckdancer's Choice
TTITLE1=Peg Leg Howell and His Gang - Warm Wipe Stomp
TTITLE2=Roy Harvey and Jess Johnson - Guitar Rag
TTITLE3=Freddie Keppard's Jazz Cardinals - Stock Yards Strut
TTITLE4=Namour and Smith - Charleston No. 1
TTITLE5=Jim and Bob (The Genial Hawaiians) - St Louis Blues
TTITLE6=Tommy Johnson - I Wonder To Myself
TTITLE7=Andrew and Jim Baxter - The Moore Girl
TTITLE8=Dixieland Jug Blowers - Panjoreno
TTITLE9=Sylvester Weaver - Soft Steel Piston
TTITLE10=King Oliver - Dipper Mouth Blues
TTITLE11=Frank Hutchinson - KC Blues
TTITLE12=Frenchy's String Band - Texas and the Pacific Blues
TTITLE13=William Moore - Old Country Rock
TTITLE14=Blind Blake - Blind Arthur's Breakdown
EXTD=
EXTT0=
EXTT1=
EXTT2=
EXTT3=
EXTT4=
EXTT5=
EXTT6=
EXTT7=
EXTT8=
EXTT9=
EXTT10=
EXTT11=
EXTT12=
EXTT13=
EXTT14=
PLAYORDER=
